Coordinates
version=1
nRows=9
nColumns=24
inDegrees=yes

Units are S.I. units (second, meters, Newtons, ...)
Angles are in degrees.

endheader
time	pelvis_tilt	pelvis_list	pelvis_rotation	pelvis_tx	pelvis_ty	pelvis_tz	hip_flexion_r	hip_adduction_r	hip_rotation_r	knee_angle_r	ankle_angle_r	subtalar_angle_r	mtp_angle_r	hip_flexion_l	hip_adduction_l	hip_rotation_l	knee_angle_l	ankle_angle_l	subtalar_angle_l	mtp_angle_l	lumbar_extension	lumbar_bending	lumbar_rotation
      5.49000000	      0.12390150	      4.74696954	     -4.92772206	     -0.59218235	      0.92521852	      0.15661373	      3.69725353	     -7.61724801	      0.45286095	    -61.58041972	    -13.74155258	     -3.21512501	      0.00000000	     23.40961947	      7.77080760	     -3.04101298	    -29.55215752	     10.36190506	    -16.54836365	      0.00000000	    -25.00727906	    -12.05000118	      5.03867442
      5.50000000	      0.08041083	      5.03613526	     -4.92594689	     -0.58006555	      0.92703984	      0.15548942	      5.87774921	     -7.89881158	      0.67853591	    -63.78795416	    -12.20987725	     -4.27568025	      0.00000000	     22.38940543	      8.24212375	     -3.02610253	    -29.04446450	     10.99029067	    -16.41482835	      0.00000000	    -25.07195641	    -12.18096352	      4.56817800
      5.51000000	      0.16816709	      5.12933545	     -4.84870617	     -0.56802384	      0.92935149	      0.15428180	      7.79040399	     -7.97834976	      0.73419347	    -65.48973855	    -10.29374236	     -5.22353482	      0.00000000	     21.15913406	      8.55816185	     -2.84147445	    -28.45465412	     11.56012327	    -16.23621287	      0.00000000	    -25.33334676	    -12.05932094	      4.06408046
      5.52000000	      0.20222063	      5.05578800	     -4.78584734	     -0.55605662	      0.93178188	      0.15300389	      9.67552982	     -7.85983849	      0.79809965	    -66.77929670	     -7.79231641	     -5.58595597	      0.00000000	     19.93895914	      8.69249266	     -2.63545432	    -27.79982454	     12.06933135	    -16.08177722	      0.00000000	    -25.51328297	    -11.71436925	      3.67003308
      5.53000000	      0.22511021	      4.82484517	     -4.67894989	     -0.54415742	      0.93436987	      0.15166644	     11.46124275	     -7.56223297	      0.75039889	    -67.61844567	     -5.17511725	     -5.74237326	      0.00000000	     18.68656801	      8.66649415	     -2.37634783	    -27.08474587	     12.51560245	    -15.95028882	      0.00000000	    -25.68702227	    -11.15950704	      3.31417098
      5.54000000	      0.23092769	      4.53316337	     -4.51187517	     -0.53227329	      0.93699453	      0.15025671	     13.16027035	     -7.20703969	      0.57403770	    -68.04864884	     -2.56790135	     -5.72573106	      0.00000000	     17.41596011	      8.57513216	     -2.09692510	    -26.30308450	     12.92644725	    -15.78719618	      0.00000000	    -25.83644304	    -10.49717682	      2.89878890
      5.55000000	      0.22752538	      4.17049379	     -4.28876226	     -0.52043946	      0.93962277	      0.14886491	     14.75718217	     -6.77346592	      0.27956187	    -68.07943052	     -0.10431199	     -5.62524773	      0.00000000	     16.13500546	      8.39726822	     -1.77754469	    -25.48867535	     13.29145574	    -15.55894977	      0.00000000	    -25.97498441	     -9.74407330	      2.54649909
      5.56000000	      0.21989011	      3.83792551	     -3.97014533	     -0.50856310	      0.94213805	      0.14737597	     16.25204101	     -6.41294264	     -0.17833123	    -67.75866459	      2.12901871	     -5.49064311	      0.00000000	     14.83598805	      8.25220140	     -1.43573940	    -24.61622021	     13.62745009	    -15.30746288	      0.00000000	    -26.08588367	     -8.97781394	      2.02871809
      5.57000000	      0.18888637	      3.48007131	     -3.64846691	     -0.49670098	      0.94450978	      0.14600242	     17.67830288	     -6.01994979	     -0.69604188	    -67.09054073	      4.00902704	     -5.42834840	      0.00000000	     13.54639310	      8.05402253	     -1.08826147	    -23.70501225	     13.93999380	    -15.06075062	      0.00000000	    -26.14873502	     -8.19013103	      1.57541516
